<!DOCTYPE svg PUBLIC "-//W3C//DTD SVG 20010904//EN" "http://www.w3.org/TR/2001/REC-SVG-20010904/DTD/svg10.dtd">
<svg version="1.0" xmlns="http://www.w3.org/2000/svg" width="40px" height="40px" viewBox="0 0 12000 12000" preserveAspectRatio="xMidYMid meet">
<g id="layer101" fill="#b0b6be" stroke="none">
 <path d="M2470 5940 l0 -3990 500 0 500 0 0 3515 0 3515 1320 0 1319 0 10 38 c16 61 91 361 205 820 l23 92 -1939 0 -1938 0 0 -3990z"/>
 <path d="M6926 9818 c-15 -62 -55 -221 -88 -353 -33 -132 -73 -292 -89 -356 -16 -64 -29 -118 -29 -122 0 -3 179 -7 398 -10 432 -4 548 -16 709 -71 431 -147 655 -440 694 -910 16 -180 6 -805 -14 -906 -74 -380 -275 -619 -634 -756 -37 -14 -122 -37 -188 -52 l-120 -26 -765 -5 -765 -6 -102 -405 c-56 -223 -106 -426 -111 -452 l-9 -46 711 -5 c754 -5 804 -8 993 -57 347 -89 566 -266 672 -540 62 -160 80 -317 80 -690 1 -434 -27 -583 -140 -754 -114 -174 -309 -300 -557 -361 -243 -60 -217 -58 -1343 -62 l-1036 -4 -112 -447 c-61 -246 -111 -453 -111 -460 0 -11 217 -12 1173 -9 1025 3 1190 6 1312 21 468 56 862 201 1170 430 107 79 265 241 344 351 82 115 181 320 219 455 75 258 85 374 80 896 -4 336 -8 426 -22 504 -81 430 -281 762 -614 1018 l-92 71 47 27 c196 111 337 218 462 350 269 284 429 638 472 1044 17 162 7 987 -14 1110 -35 210 -93 402 -172 568 -255 537 -737 905 -1397 1066 -191 46 -320 59 -664 63 l-321 5 -27 -114z"/>
 </g>

</svg>